<mxfile host="app.diagrams.net" modified="2022-12-12T22:32:06.872Z" agent="5.0 (Windows)" etag="VUHGbgvgEuHl2Zoz1YMX" version="20.6.2" type="github">
  <diagram id="H0ON2f_15NVZSamJTb4W" name="Página-1">
    <mxGraphModel dx="1080" dy="468" grid="1" gridSize="10" guides="1" tooltips="1" connect="1" arrows="1" fold="1" page="1" pageScale="1" pageWidth="1169" pageHeight="827" math="0" shadow="0">
      <root>
        <mxCell id="0" />
        <mxCell id="1" parent="0" />
        <mxCell id="N7_YvTh9Ru7VLPoMYilD-1" value="&lt;h1&gt;&lt;font color=&quot;#000000&quot;&gt;1. Usuário requisita empréstimo&lt;/font&gt;&lt;/h1&gt;&lt;p&gt;&lt;font color=&quot;#000000&quot;&gt;Através do APP, o usuário faz a requisição do empréstimo.&lt;/font&gt;&lt;/p&gt;&lt;p&gt;&lt;font color=&quot;#000000&quot;&gt;O usuário deve ser informado que sua solicitação foi enviada.&lt;/font&gt;&lt;/p&gt;" style="text;html=1;strokeColor=#d6b656;fillColor=#fff2cc;spacing=5;spacingTop=-20;whiteSpace=wrap;overflow=hidden;rounded=0;" parent="1" vertex="1">
          <mxGeometry x="10" y="10" width="430" height="110" as="geometry" />
        </mxCell>
        <mxCell id="N7_YvTh9Ru7VLPoMYilD-2" value="&lt;h1&gt;&lt;font color=&quot;#000000&quot;&gt;2. API recebe requisição de Empréstimo&lt;/font&gt;&lt;/h1&gt;&lt;p&gt;&lt;font color=&quot;#000000&quot;&gt;1. Deve ser armazenado o status do processamento (PENDENTE).&lt;/font&gt;&lt;/p&gt;&lt;p&gt;&lt;span&gt;&lt;font color=&quot;#000000&quot;&gt;2. Enviar para o &lt;/font&gt;&lt;/span&gt;&lt;span&gt;&lt;font color=&quot;#000000&quot;&gt;Análise de Crédito&lt;/font&gt;&lt;/span&gt;&lt;span&gt;&lt;font color=&quot;#000000&quot;&gt;, com a identificação do usuário e o valor do empréstimo&lt;br&gt;&lt;/font&gt;&lt;/span&gt;&lt;/p&gt;" style="text;html=1;strokeColor=#d6b656;fillColor=#fff2cc;spacing=5;spacingTop=-20;whiteSpace=wrap;overflow=hidden;rounded=0;" parent="1" vertex="1">
          <mxGeometry x="10" y="160" width="430" height="160" as="geometry" />
        </mxCell>
        <mxCell id="gjlxMofRhx_1TDR0LI8n-2" value="&lt;h1&gt;&lt;font color=&quot;#000000&quot;&gt;3. API recebe resposta da análise de crédito&lt;/font&gt;&lt;/h1&gt;&lt;p&gt;&lt;span&gt;&lt;font color=&quot;#000000&quot;&gt;1. Atualizar status no banco de acordo com a resposta&lt;br&gt;&lt;/font&gt;&lt;/span&gt;&lt;/p&gt;&lt;p&gt;&lt;span&gt;&lt;font color=&quot;#000000&quot;&gt;2. Se aprovado, enviar ao financeiro&lt;/font&gt;&lt;/span&gt;&lt;/p&gt;" style="text;html=1;strokeColor=#d6b656;fillColor=#fff2cc;spacing=5;spacingTop=-20;whiteSpace=wrap;overflow=hidden;rounded=0;" parent="1" vertex="1">
          <mxGeometry x="480" y="10" width="440" height="150" as="geometry" />
        </mxCell>
        <mxCell id="gjlxMofRhx_1TDR0LI8n-3" value="&lt;h1&gt;&lt;font color=&quot;#000000&quot;&gt;5. API atualizou status&lt;/font&gt;&lt;/h1&gt;&lt;p&gt;&lt;font color=&quot;#000000&quot;&gt;A atualização deve ser propagada para o serviço de notificações&lt;/font&gt;&lt;/p&gt;" style="text;html=1;strokeColor=#d6b656;fillColor=#fff2cc;spacing=5;spacingTop=-20;whiteSpace=wrap;overflow=hidden;rounded=0;" parent="1" vertex="1">
          <mxGeometry x="480" y="470" width="500" height="80" as="geometry" />
        </mxCell>
      </root>
    </mxGraphModel>
  </diagram>
</mxfile>
